<svg width="24" height="24" viewBox="0 0 24 24" fill="none" xmlns="http://www.w3.org/2000/svg">
<rect width="24" height="24" fill="#F0F0F0"/>
<g id="user-verified">
<rect x="-15.5" y="-15.5" width="225" height="55" rx="4.5" stroke="#07C160" stroke-opacity="0.5" stroke-dasharray="10 5"/>
<g id="Types=Line">
<path id="Vector" d="M16.2102 12.4514C16.7727 11.8495 17.7278 11.8495 18.2903 12.4514C18.5708 12.7516 18.9675 12.9165 19.3782 12.9026C20.2012 12.875 20.8755 13.5492 20.8479 14.3723C20.834 14.7829 20.9989 15.1796 21.2991 15.4602C21.9009 16.0227 21.9009 16.9778 21.2991 17.5403C20.9989 17.8208 20.834 18.2175 20.8479 18.6282C20.8755 19.4512 20.2012 20.1255 19.3782 20.0979C18.9675 20.084 18.5708 20.2489 18.2903 20.5491C17.7278 21.1509 16.7727 21.1509 16.2102 20.5491C15.9296 20.2489 15.5329 20.084 15.1223 20.0979C14.2992 20.1255 13.625 19.4512 13.6526 18.6282C13.6665 18.2175 13.5016 17.8208 13.2014 17.5403C12.5995 16.9778 12.5995 16.0227 13.2014 15.4602C13.5016 15.1796 13.6665 14.7829 13.6526 14.3723C13.625 13.5492 14.2992 12.875 15.1223 12.9026C15.5329 12.9165 15.9296 12.7516 16.2102 12.4514ZM19.3498 14.8391C19.054 14.5496 18.5791 14.5543 18.2893 14.8498L16.6623 16.509L16.2493 16.0178C15.9828 15.7008 15.5097 15.6596 15.1926 15.926C14.8756 16.1924 14.8345 16.6655 15.1008 16.9827L16.0461 18.1077C16.1821 18.2694 16.3799 18.366 16.5911 18.3743C16.8022 18.3823 17.0075 18.3014 17.1555 18.1506L19.3606 15.9006C19.6505 15.6048 19.6457 15.129 19.3498 14.8391Z" fill="#07C160"/>
<path id="Vector_2" d="M12.4899 11.25C13.0265 11.25 13.554 11.3069 14.0661 11.4141C13.4939 11.773 12.9869 12.2259 12.5661 12.751C12.5407 12.7507 12.5153 12.75 12.4899 12.75H9.50944C7.06344 12.75 4.84661 14.1906 3.85319 16.4258C3.05404 18.2242 4.37058 20.2498 6.33854 20.25H12.568C13.0559 20.8583 13.659 21.3695 14.3454 21.75H6.33854C3.28502 21.7498 1.2429 18.6068 2.48308 15.8164C3.71729 13.0396 6.47073 11.25 9.50944 11.25H12.4899ZM10.9997 2.25C13.0707 2.25002 14.7497 3.92894 14.7497 6C14.7497 8.07106 13.0707 9.74998 10.9997 9.75C8.92861 9.75 7.24968 8.07107 7.24968 6C7.24968 3.92893 8.92861 2.25 10.9997 2.25ZM10.9997 3.75C9.75704 3.75 8.74968 4.75736 8.74968 6C8.74968 7.24264 9.75704 8.25 10.9997 8.25C12.2423 8.24998 13.2497 7.24263 13.2497 6C13.2497 4.75737 12.2423 3.75002 10.9997 3.75Z" fill="#07C160"/>
</g>
</g>
</svg>
