<svg width="18" height="17" viewBox="0 0 18 17" fill="none" xmlns="http://www.w3.org/2000/svg">
<rect width="18" height="17" fill="#F0F0F0"/>
<g id="Logout" opacity="0.4">
<path id="Logout_2" d="M7.91016 0C9.97896 0 11.667 1.65853 11.667 3.7002V7.69141H6.5791C6.2148 7.69159 5.92693 7.97495 5.92676 8.33301C5.92676 8.68289 6.21469 8.97442 6.5791 8.97461H11.667V12.958C11.667 14.9997 9.97931 16.667 7.89355 16.667H3.76465C1.68742 16.667 7.12021e-05 15.0084 0 12.9668V3.70801C0.00017951 1.65816 1.69627 0 3.77344 0H7.91016ZM13.7832 5.45898C14.0331 5.20073 14.4414 5.20041 14.6914 5.4502L17.125 7.875C17.25 8 17.3164 8.15898 17.3164 8.33398C17.3163 8.50047 17.2499 8.66665 17.125 8.7832L14.6914 11.209C14.5665 11.3336 14.4002 11.4003 14.2422 11.4004C14.0756 11.4004 13.9082 11.3339 13.7832 11.209C13.5332 10.959 13.5332 10.5498 13.7832 10.2998L15.1172 8.97559H11.667V7.69141H15.1172L13.7832 6.36719C13.5333 6.11732 13.5336 5.70902 13.7832 5.45898Z" fill="#030229"/>
</g>
</svg>
